<?xml version="1.0" encoding="utf-8"?>
<!-- Uploaded to: SVG Repo, www.svgrepo.com, Generator: SVG Repo Mixer Tools -->
<svg width="800px" height="800px" viewBox="-18.4 0 110.516 110.516" xmlns="http://www.w3.org/2000/svg">
  <g id="Group_1122" data-name="Group 1122" transform="translate(-1785.023 -13880.168)">
    <path id="Path_849" data-name="Path 849" d="M-3338.974,2073.806l-8.418-10.145-4.857-11.333v-11.656h-7.446l-11.224,8.1-6.584,12.519-.971,9.713-8.2-2.914-2.7,12.844,24.175,7.77,28.709-5.072-2.483-9.821" transform="translate(5186 11845)" fill="#f63832" fill-rule="evenodd"/>
    <path id="Path_850" data-name="Path 850" d="M-3361.314,2067.546l-10.361,12.867,7.556,6.991,9.928-6.991-7.123-12.867" transform="translate(5186 11845)" fill="#f1ca25" fill-rule="evenodd"/>
    <path id="Path_851" data-name="Path 851" d="M-3331.79,2089.3l-10.192-8.118-9.881-.765-12.446,5.939-2.451-1.7-9.05-4.242-8.482.479-11.123,6.5-3.3,10.364.944,9.994,10.554,15.552,10,10.93,13.76,9.143,7.352-6.034,17.815-15.743,8.769-20.36-2.267-11.947" transform="translate(5186 11845)" fill="#ef204d" fill-rule="evenodd"/>
    <path id="Path_852" data-name="Path 852" d="M-3348.687,2128.358a119.257,119.257,0,0,1-15.432,11.9,119.076,119.076,0,0,1-15.434-11.9c-7.669-7.051-16.816-17.767-16.816-28.741a16.787,16.787,0,0,1,4.95-11.943,16.778,16.778,0,0,1,11.944-4.948,16.765,16.765,0,0,1,12.063,5.069l3.293,3.36,3.291-3.36a16.765,16.765,0,0,1,12.064-5.069,16.772,16.772,0,0,1,11.942,4.948,16.784,16.784,0,0,1,4.952,11.943C-3331.87,2110.591-3341.018,2121.307-3348.687,2128.358Zm-7.959-48.744a21.535,21.535,0,0,0-7.473,4.957,21.8,21.8,0,0,0-4.5-3.514,25.312,25.312,0,0,1,6.794-9.848A45.738,45.738,0,0,0-3356.646,2079.614Zm-27.912-9.485a33.246,33.246,0,0,1,4.2,2.165l3.608,2.476V2070.4c0-7.889,1.88-13.98,5.741-18.621,3.453-4.152,8.674-7.4,15.892-9.888a33.373,33.373,0,0,0-.1,6.1,33.532,33.532,0,0,0,9.271,20.688c3.676,3.918,6.044,7.9,7.062,11.837a21.425,21.425,0,0,0-9.878-2.4,22.178,22.178,0,0,0-2.938.2,41.03,41.03,0,0,1-7.1-11.72l-1.1-3.107-2.539,2.1c-5.177,4.3-8.621,8.742-10.4,13.572a21.439,21.439,0,0,0-6.64-1.048,21.5,21.5,0,0,0-6.975,1.156A30.16,30.16,0,0,1-3384.558,2070.129Zm50.856,14.153a22.658,22.658,0,0,0-.489-3.967c-1.079-5.032-3.905-10.007-8.405-14.79a28.693,28.693,0,0,1-8.013-17.685,26.105,26.105,0,0,1,.647-8.618l1.242-4.054-4.075,1.167c-18.316,5.231-27.22,14.644-28.418,30.267-1.753-.837-3.423-1.531-3.722-1.656l-2.092-.867-.9,2.077a34.644,34.644,0,0,0-3.145,15.36,21.484,21.484,0,0,0-9.9,18.1c0,24.57,36.858,46.067,36.858,46.067s36.855-21.5,36.855-46.067a21.427,21.427,0,0,0-6.438-15.335" transform="translate(5186 11845)" fill="#070505" fill-rule="evenodd"/>
  </g>
</svg>