<?xml version="1.0" encoding="iso-8859-1"?>
<!-- Uploaded to: SVG Repo, www.svgrepo.com, Generator: SVG Repo Mixer Tools -->
<svg height="800px" width="800px" version="1.1" id="Layer_1" xmlns="http://www.w3.org/2000/svg" xmlns:xlink="http://www.w3.org/1999/xlink" 
	 viewBox="0 0 512 512" xml:space="preserve">
<path style="fill:#FF6761;" d="M401.201,65.857c-4.662-11.035-18.29-20.066-30.273-20.066h-6.536l87.149,252.089h47.834
	L401.201,65.857z"/>
<g>
	<path style="fill:#FF9387;" d="M469.994,278.087l-45.699-30.796L366.897,77.383h-27.103c-8.726,0-15.796-7.07-15.796-15.796
		s7.07-15.796,15.796-15.796h24.598c9.946,0,21.123,9.085,25.142,20.066C406.408,112.068,451.878,230.852,469.994,278.087z"/>
	<path style="fill:#FF9387;" d="M110.796,65.86c4.669-11.036,18.294-20.066,30.277-20.066h31.133
		c8.724,0,15.796,7.072,15.796,15.796c0,8.725-7.072,15.796-15.796,15.796h-27.099l-57.398,169.91l-75.083,50.588L110.796,65.86z"/>
</g>
<path style="fill:#7BFFCD;" d="M433.152,269.045h-20.839l-22.866,170.899c0,0,93.685-50.917,93.685-120.919
	C483.132,291.421,460.756,269.045,433.152,269.045z"/>
<path style="fill:#CAFFEB;" d="M412.313,279.971c14.445,0,26.156,19.521,26.156,43.596c0,61.048-49.021,105.45-49.021,105.45v10.926
	c0,0-93.685-50.917-93.685-120.919c0-27.604,22.375-49.98,49.98-49.98c13.737,0,43.934,0,66.571,0V279.971z"/>
<path style="fill:#7BFFCD;" d="M166.257,269.044h-20.839l-22.866,170.9c0,0,93.685-50.917,93.685-120.919
	C216.237,291.42,193.862,269.044,166.257,269.044z"/>
<path style="fill:#CAFFEB;" d="M145.418,279.971c14.445,0,26.156,19.521,26.156,43.596c0,61.048-49.021,105.45-49.021,105.45v10.926
	c0,0-93.685-50.917-93.685-120.919c0-27.604,22.375-49.98,49.98-49.98c13.737,0,43.934,0,66.571,0V279.971z"/>
<path style="fill:#CB2E3E;" d="M503.83,323.568c0,34.358-17.789,68.837-51.44,99.698c-23.127,21.199-46.363,33.934-47.344,34.467
	l-15.6,8.475l-21.787-29.284l21.787-7.907c0,0,81.702-44.402,81.702-105.45c0-24.075-19.521-43.596-43.585-43.596
	c-16.417,0-30.687,9.085-38.117,22.495l-10.894-28.221l10.894-16.715c11.395-6.591,24.5-10.24,38.117-10.24
	C469.613,247.291,503.83,281.507,503.83,323.568z"/>
<path style="fill:#FF3B3B;" d="M389.447,429.018v37.191l-15.611-8.475c-0.97-0.534-24.217-13.268-47.333-34.467
	c-23.007-21.101-38.596-43.89-46.156-67.181h-48.694c-7.56,23.291-23.149,46.08-46.156,67.181
	c-23.127,21.199-46.363,33.934-47.344,34.467l-15.6,8.475l-15.611-8.475c-0.97-0.534-24.217-13.268-47.333-34.467
	c-33.65-30.862-51.44-65.34-51.44-99.698c0-42.06,34.217-76.277,76.266-76.277c13.617,0,26.722,3.649,38.117,10.24
	c11.395-6.591,24.5-10.24,38.117-10.24c41.995,0,76.179,34.13,76.266,76.114c0,0,8.17-7.626,19.064-7.626s19.064,7.626,19.064,7.626
	c0.087-41.984,34.26-76.114,76.266-76.114c13.617,0,26.722,3.649,38.117,10.24v44.936c-7.429-13.41-21.7-22.495-38.117-22.495
	c-24.075,0-43.585,19.521-43.585,43.596C307.745,384.615,389.447,429.018,389.447,429.018z M204.255,323.568
	c0-24.075-19.521-43.596-43.585-43.596c-16.417,0-30.687,9.085-38.117,22.495c-7.429-13.41-21.7-22.495-38.117-22.495
	c-24.075,0-43.585,19.521-43.585,43.596c0,61.048,81.702,105.45,81.702,105.45S204.255,384.615,204.255,323.568z"/>
<path d="M507.208,295.559c-0.034-0.111-0.074-0.22-0.112-0.331c-1.038-2.904-2.222-5.739-3.56-8.487L408.73,62.675
	c-5.944-14.048-22.548-25.053-37.801-25.053h-31.132c-13.215,0-23.966,10.751-23.966,23.966s10.751,23.966,23.966,23.966h21.235
	l44.788,132.583c1.443,4.276,6.078,6.566,10.355,5.125c4.275-1.443,6.57-6.081,5.125-10.355L374.636,74.769
	c-1.121-3.32-4.237-5.556-7.74-5.556h-27.099c-4.204,0-7.626-3.422-7.626-7.626s3.422-7.626,7.626-7.626h31.132
	c8.721,0,19.354,7.047,22.752,15.08l76.985,181.95c-12.627-7.529-27.366-11.87-43.104-11.87c-13.237,0-26.319,3.138-38.115,9.113
	c-11.796-5.974-24.877-9.113-38.113-9.113c-41.858,0-76.744,30.673-83.32,70.725c-3.479-1.297-7.541-2.235-12.011-2.235
	c-4.472,0-8.533,0.937-12.012,2.235c-6.576-40.051-41.464-70.725-83.32-70.725c-13.237,0-26.319,3.138-38.115,9.113
	c-11.796-5.974-24.877-9.113-38.113-9.113c-15.738,0-30.476,4.34-43.103,11.869l76.985-181.95
	c3.399-8.032,14.031-15.079,22.752-15.079h31.132c4.204,0,7.626,3.422,7.626,7.626s-3.422,7.626-7.626,7.626h-27.099
	c-3.504,0-6.619,2.235-7.74,5.556L90.701,212.907c-1.444,4.275,0.851,8.912,5.125,10.355c4.276,1.44,8.912-0.851,10.355-5.125
	L150.97,85.554h21.235c13.215,0,23.966-10.751,23.966-23.966s-10.751-23.966-23.966-23.966h-31.132
	c-15.253,0-31.857,11.005-37.801,25.052L8.476,286.72c-1.353,2.78-2.55,5.647-3.597,8.586c-0.025,0.076-0.054,0.154-0.078,0.23
	C1.703,304.312,0,313.739,0,323.562c0,36.716,18.704,73.276,54.091,105.728c23.804,21.829,47.937,35.063,48.956,35.617l15.604,8.48
	c2.431,1.321,5.371,1.321,7.802,0l15.608-8.482c1.015-0.552,25.149-13.786,48.953-35.615c22.224-20.381,37.819-42.233,46.425-65.029
	h37.119c8.606,22.797,24.201,44.649,46.425,65.029c23.804,21.829,47.937,35.063,48.956,35.617l15.604,8.48
	c1.216,0.66,2.559,0.991,3.901,0.991c1.342,0,2.685-0.331,3.901-0.991l15.608-8.482c1.015-0.552,25.149-13.786,48.953-35.615
	C493.296,396.837,512,360.278,512,323.562C512,313.748,510.299,304.328,507.208,295.559z M446.864,417.247
	c-22.344,20.491-44.774,32.791-45.714,33.302l-11.703,6.36l-11.699-6.358c-0.944-0.514-23.374-12.814-45.718-33.304
	c-21.951-20.13-36.726-41.556-43.912-63.681c-1.093-3.367-4.23-5.647-7.77-5.647h-48.696c-3.54,0-6.678,2.28-7.77,5.647
	c-7.187,22.125-21.96,43.55-43.912,63.681c-22.344,20.491-44.774,32.791-45.714,33.302l-11.703,6.36l-11.699-6.358
	c-0.944-0.514-23.374-12.814-45.718-33.304c-31.922-29.276-48.795-61.671-48.795-93.685c0-7.999,1.398-15.676,3.943-22.812
	l3.045-7.194c11.114-22.54,34.326-38.091,61.111-38.091c11.92,0,23.685,3.158,34.025,9.134c2.529,1.462,5.647,1.462,8.177,0
	c10.34-5.975,22.106-9.134,34.026-9.134c37.473,0,68.019,30.487,68.094,67.961c0.007,3.25,1.938,6.188,4.921,7.48
	c2.983,1.296,6.447,0.696,8.823-1.521c0.059-0.054,6.152-5.429,13.497-5.429c7.409,0,13.477,5.415,13.494,5.429
	c2.376,2.217,5.842,2.818,8.824,1.521c2.982-1.293,4.914-4.23,4.921-7.48c0.074-37.473,30.621-67.961,68.095-67.961
	c11.92,0,23.685,3.158,34.025,9.134c2.529,1.462,5.647,1.462,8.177,0c10.34-5.975,22.106-9.134,34.026-9.134
	c26.794,0,50.014,15.56,61.123,38.114l3.024,7.147c2.551,7.144,3.951,14.828,3.951,22.837
	C495.66,355.576,478.786,387.972,446.864,417.247z"/>
<path d="M160.667,271.804c-14.655,0-28.43,6.225-38.114,16.778c-9.684-10.554-23.458-16.778-38.113-16.778
	c-28.54,0-51.759,23.218-51.759,51.758c0,65.161,82.46,110.723,85.971,112.63c1.216,0.66,2.559,0.991,3.901,0.991
	c1.342,0,2.685-0.331,3.901-0.991c3.511-1.909,85.971-47.469,85.971-112.63C212.426,295.022,189.207,271.804,160.667,271.804z
	 M122.553,419.551c-15.733-9.537-73.532-47.862-73.532-95.989c0-19.529,15.888-35.417,35.418-35.417
	c12.851,0,24.717,7.006,30.968,18.282c1.439,2.598,4.176,4.209,7.146,4.209s5.706-1.611,7.146-4.209
	c6.251-11.277,18.117-18.282,30.968-18.282c19.53,0,35.418,15.888,35.418,35.417C196.085,371.689,138.286,410.014,122.553,419.551z"
	/>
<path d="M427.56,271.804c-14.655,0-28.43,6.225-38.113,16.778c-9.684-10.554-23.458-16.778-38.113-16.778
	c-28.539,0-51.759,23.218-51.759,51.758c0,65.161,82.46,110.723,85.971,112.63c1.216,0.66,2.559,0.991,3.901,0.991
	c1.342,0,2.685-0.331,3.901-0.991c3.511-1.909,85.971-47.469,85.971-112.63C479.319,295.022,456.1,271.804,427.56,271.804z
	 M389.447,419.551c-15.733-9.537-73.532-47.862-73.532-95.989c0-19.529,15.888-35.417,35.418-35.417
	c12.851,0,24.717,7.006,30.968,18.282c1.439,2.598,4.176,4.209,7.146,4.209c2.971,0,5.706-1.611,7.146-4.209
	c6.251-11.277,18.117-18.282,30.968-18.282c19.53,0,35.418,15.888,35.418,35.417C462.979,371.689,405.179,410.014,389.447,419.551z"
	/>
</svg>